<mxfile host="app.diagrams.net" modified="2023-09-18T13:14:39.072Z" agent="Mozilla/5.0 (Macintosh; Intel Mac OS X 10_15_7) AppleWebKit/537.36 (KHTML, like Gecko) Chrome/116.0.0.0 Safari/537.36" etag="WWMSy_HnJO5uxeK4_5uP" version="21.7.5" type="github">
  <diagram name="第 1 页" id="ObCOvcvuYvX0FeNdG79U">
    <mxGraphModel dx="1159" dy="615" grid="1" gridSize="10" guides="1" tooltips="1" connect="1" arrows="1" fold="1" page="1" pageScale="1" pageWidth="827" pageHeight="1169" math="0" shadow="0">
      <root>
        <mxCell id="0" />
        <mxCell id="1" parent="0" />
        <mxCell id="HpXKNJ-Cr9iwPBIfp2a8-8" style="edgeStyle=orthogonalEdgeStyle;rounded=0;orthogonalLoop=1;jettySize=auto;html=1;entryX=0.5;entryY=0;entryDx=0;entryDy=0;" edge="1" parent="1" source="HpXKNJ-Cr9iwPBIfp2a8-1" target="HpXKNJ-Cr9iwPBIfp2a8-3">
          <mxGeometry relative="1" as="geometry">
            <Array as="points">
              <mxPoint x="349" y="240" />
              <mxPoint x="530" y="240" />
            </Array>
          </mxGeometry>
        </mxCell>
        <mxCell id="HpXKNJ-Cr9iwPBIfp2a8-27" value="创建" style="edgeLabel;html=1;align=center;verticalAlign=middle;resizable=0;points=[];" vertex="1" connectable="0" parent="HpXKNJ-Cr9iwPBIfp2a8-8">
          <mxGeometry x="-0.0124" y="2" relative="1" as="geometry">
            <mxPoint as="offset" />
          </mxGeometry>
        </mxCell>
        <mxCell id="HpXKNJ-Cr9iwPBIfp2a8-9" style="edgeStyle=orthogonalEdgeStyle;rounded=0;orthogonalLoop=1;jettySize=auto;html=1;entryX=0.5;entryY=0;entryDx=0;entryDy=0;" edge="1" parent="1" source="HpXKNJ-Cr9iwPBIfp2a8-1" target="HpXKNJ-Cr9iwPBIfp2a8-6">
          <mxGeometry relative="1" as="geometry">
            <Array as="points">
              <mxPoint x="349" y="240" />
              <mxPoint x="182" y="240" />
            </Array>
          </mxGeometry>
        </mxCell>
        <mxCell id="HpXKNJ-Cr9iwPBIfp2a8-26" value="创建" style="edgeLabel;html=1;align=center;verticalAlign=middle;resizable=0;points=[];" vertex="1" connectable="0" parent="HpXKNJ-Cr9iwPBIfp2a8-9">
          <mxGeometry x="0.0573" y="-1" relative="1" as="geometry">
            <mxPoint as="offset" />
          </mxGeometry>
        </mxCell>
        <mxCell id="HpXKNJ-Cr9iwPBIfp2a8-1" value="&lt;span style=&quot;font-size: 16px;&quot;&gt;babylon&lt;br&gt;框架&lt;/span&gt;" style="rounded=1;whiteSpace=wrap;html=1;fillColor=#f5f5f5;fontColor=#333333;strokeColor=#666666;" vertex="1" parent="1">
          <mxGeometry x="284" y="150" width="130" height="60" as="geometry" />
        </mxCell>
        <mxCell id="HpXKNJ-Cr9iwPBIfp2a8-11" style="edgeStyle=orthogonalEdgeStyle;rounded=0;orthogonalLoop=1;jettySize=auto;html=1;entryX=0.5;entryY=1;entryDx=0;entryDy=0;strokeColor=#cb7272;" edge="1" parent="1">
          <mxGeometry relative="1" as="geometry">
            <mxPoint x="547" y="420" as="sourcePoint" />
            <mxPoint x="547" y="330" as="targetPoint" />
          </mxGeometry>
        </mxCell>
        <mxCell id="HpXKNJ-Cr9iwPBIfp2a8-30" value="&lt;font color=&quot;#cb7272&quot;&gt;更新&lt;/font&gt;" style="edgeLabel;html=1;align=center;verticalAlign=middle;resizable=0;points=[];" vertex="1" connectable="0" parent="HpXKNJ-Cr9iwPBIfp2a8-11">
          <mxGeometry y="-3" relative="1" as="geometry">
            <mxPoint as="offset" />
          </mxGeometry>
        </mxCell>
        <mxCell id="HpXKNJ-Cr9iwPBIfp2a8-2" value="&lt;font style=&quot;&quot;&gt;&lt;font style=&quot;font-size: 16px;&quot;&gt;2D Canvas&lt;br&gt;&lt;/font&gt;&lt;font style=&quot;font-size: 13px;&quot;&gt;同时用于图片模式和涂鸦模式&lt;/font&gt;&lt;br&gt;&lt;/font&gt;" style="rounded=1;whiteSpace=wrap;html=1;fillColor=#dae8fc;strokeColor=#6c8ebf;arcSize=28;" vertex="1" parent="1">
          <mxGeometry x="430" y="420" width="200" height="60" as="geometry" />
        </mxCell>
        <mxCell id="HpXKNJ-Cr9iwPBIfp2a8-15" style="edgeStyle=orthogonalEdgeStyle;rounded=0;orthogonalLoop=1;jettySize=auto;html=1;strokeColor=#CB7272;" edge="1" parent="1" source="HpXKNJ-Cr9iwPBIfp2a8-3" target="HpXKNJ-Cr9iwPBIfp2a8-6">
          <mxGeometry relative="1" as="geometry" />
        </mxCell>
        <mxCell id="HpXKNJ-Cr9iwPBIfp2a8-33" value="&lt;b style=&quot;border-color: var(--border-color); font-size: 12px; background-color: rgb(251, 251, 251);&quot;&gt;&lt;font style=&quot;border-color: var(--border-color);&quot; color=&quot;#cb7272&quot;&gt;实时更新&lt;/font&gt;&lt;/b&gt;" style="edgeLabel;html=1;align=center;verticalAlign=middle;resizable=0;points=[];" vertex="1" connectable="0" parent="HpXKNJ-Cr9iwPBIfp2a8-15">
          <mxGeometry x="-0.0682" y="-2" relative="1" as="geometry">
            <mxPoint as="offset" />
          </mxGeometry>
        </mxCell>
        <mxCell id="HpXKNJ-Cr9iwPBIfp2a8-3" value="&lt;font style=&quot;&quot;&gt;&lt;span style=&quot;font-size: 16px;&quot;&gt;dynamic Texture&lt;/span&gt;&lt;br&gt;&lt;font style=&quot;font-size: 13px;&quot;&gt;动态纹理&lt;/font&gt;&lt;br&gt;&lt;/font&gt;" style="rounded=1;whiteSpace=wrap;html=1;fillColor=#f8cecc;strokeColor=#b85450;" vertex="1" parent="1">
          <mxGeometry x="430" y="270" width="200" height="60" as="geometry" />
        </mxCell>
        <mxCell id="HpXKNJ-Cr9iwPBIfp2a8-6" value="&lt;font style=&quot;&quot;&gt;&lt;span style=&quot;font-size: 16px;&quot;&gt;3D Avatar&lt;/span&gt;&lt;br&gt;&lt;font style=&quot;font-size: 13px;&quot;&gt;实时渲染&lt;/font&gt;&lt;br&gt;&lt;/font&gt;" style="rounded=1;whiteSpace=wrap;html=1;fillColor=#fff2cc;strokeColor=#d6b656;" vertex="1" parent="1">
          <mxGeometry x="110" y="270" width="144" height="60" as="geometry" />
        </mxCell>
        <mxCell id="HpXKNJ-Cr9iwPBIfp2a8-12" value="" style="endArrow=classic;html=1;rounded=0;exitX=0.25;exitY=1;exitDx=0;exitDy=0;entryX=0.25;entryY=0;entryDx=0;entryDy=0;" edge="1" parent="1">
          <mxGeometry width="50" height="50" relative="1" as="geometry">
            <mxPoint x="517" y="330" as="sourcePoint" />
            <mxPoint x="517" y="420" as="targetPoint" />
          </mxGeometry>
        </mxCell>
        <mxCell id="HpXKNJ-Cr9iwPBIfp2a8-32" value="绑定" style="edgeLabel;html=1;align=center;verticalAlign=middle;resizable=0;points=[];" vertex="1" connectable="0" parent="HpXKNJ-Cr9iwPBIfp2a8-12">
          <mxGeometry x="-0.0667" relative="1" as="geometry">
            <mxPoint y="3" as="offset" />
          </mxGeometry>
        </mxCell>
        <mxCell id="HpXKNJ-Cr9iwPBIfp2a8-22" value="操作" style="edgeStyle=orthogonalEdgeStyle;rounded=0;orthogonalLoop=1;jettySize=auto;html=1;entryX=0;entryY=0.5;entryDx=0;entryDy=0;" edge="1" parent="1" source="HpXKNJ-Cr9iwPBIfp2a8-21" target="HpXKNJ-Cr9iwPBIfp2a8-2">
          <mxGeometry relative="1" as="geometry">
            <Array as="points">
              <mxPoint x="340" y="450" />
              <mxPoint x="340" y="450" />
            </Array>
          </mxGeometry>
        </mxCell>
        <mxCell id="HpXKNJ-Cr9iwPBIfp2a8-23" style="edgeStyle=orthogonalEdgeStyle;rounded=0;orthogonalLoop=1;jettySize=auto;html=1;entryX=0.5;entryY=1;entryDx=0;entryDy=0;" edge="1" parent="1" source="HpXKNJ-Cr9iwPBIfp2a8-21" target="HpXKNJ-Cr9iwPBIfp2a8-6">
          <mxGeometry relative="1" as="geometry" />
        </mxCell>
        <mxCell id="HpXKNJ-Cr9iwPBIfp2a8-25" value="预览" style="edgeLabel;html=1;align=center;verticalAlign=middle;resizable=0;points=[];" vertex="1" connectable="0" parent="HpXKNJ-Cr9iwPBIfp2a8-23">
          <mxGeometry x="0.1111" y="1" relative="1" as="geometry">
            <mxPoint as="offset" />
          </mxGeometry>
        </mxCell>
        <mxCell id="HpXKNJ-Cr9iwPBIfp2a8-21" value="&lt;font style=&quot;&quot;&gt;&lt;font style=&quot;font-size: 13px;&quot;&gt;用户&lt;/font&gt;&lt;br&gt;&lt;/font&gt;" style="rounded=1;whiteSpace=wrap;html=1;fillColor=#fff2cc;strokeColor=#d6b656;" vertex="1" parent="1">
          <mxGeometry x="110" y="420" width="144" height="60" as="geometry" />
        </mxCell>
      </root>
    </mxGraphModel>
  </diagram>
</mxfile>
